# xmcd
#
# Track frame offsets:
#  150
#  29057
#  53032
#  79539
#  103982
#  120277
#  139252
#  164819
#  190887
#  215054
#  238599
#  262687
#
# Disc length: 3806 seconds
#
# Revision: 0
# Processed by: cddbd v1.5.1PL2 Copyright (c) Steve Scherf et al.
# Submitted via: Collectorz.com_Music_Collector 6.10
#
DISCID=aa0edc0c
DTITLE=Bruce Springsteen - Paris 96 [CD1)
DYEAR=1996
DGENRE=Acoustic
TTITLE0=The Ghost Of Tom Joad
TTITLE1=Adam Raised A Cain
TTITLE2=Straight Time
TTITLE3=Highway 29
TTITLE4=Darkness On The Edge Of Town
TTITLE5=Murder Inc
TTITLE6=Nebraska
TTITLE7=Little Things That Count
TTITLE8=Brothers Under The Bridges
TTITLE9=Born In The Usa
TTITLE10=Dry Lightning
TTITLE11=Reason To Believe
EXTD=
EXTT0=
EXTT1=
EXTT2=
EXTT3=
EXTT4=
EXTT5=
EXTT6=
EXTT7=
EXTT8=
EXTT9=
EXTT10=
EXTT11=
PLAYORDER=
